<?xml version="1.0" encoding="UTF-8"?><svg xmlns="http://www.w3.org/2000/svg" xmlns:xlink="http://www.w3.org/1999/xlink" version="1.1" x="0px" y="0px" viewBox="0 0 32 32" xml:space="preserve"><path d="M8.931 31.798c.03.218.31.27.437.105.181-.237 2.522-3.127 3.318-6.015.225-.818 1.292-5.053 1.292-5.053.639 1.218 2.505 2.292 4.49 2.292 5.909 0 9.918-5.387 9.918-12.598C28.387 5.077 23.769 0 16.75 0 8.017 0 3.614 6.261 3.614 11.482c0 3.161 1.197 5.974 3.764 7.022.42.171.798.006.92-.46.086-.323.286-1.137.376-1.475.124-.461.075-.623-.264-1.025-.74-.873-1.213-2.003-1.213-3.605 0-4.645 3.475-8.803 9.049-8.803 4.936 0 7.648 3.016 7.648 7.044 0 5.3-2.345 9.773-5.827 9.773-1.923 0-3.362-1.591-2.901-3.541.553-2.328 1.622-4.841 1.622-6.522 0-1.504-.807-2.759-2.479-2.759-1.966 0-3.544 2.033-3.544 4.758 0 1.734.586 2.908.586 2.908L8.986 24.812c-.702 2.974-.106 6.618-.055 6.986z" id="Full_copy" fill="#696969"/><metadata><rdf:RDF xmlns:rdf="http://www.w3.org/1999/02/22-rdf-syntax-ns#" xmlns:rdfs="http://www.w3.org/2000/01/rdf-schema#" xmlns:dc="http://purl.org/dc/elements/1.1/"><rdf:Description about="https://iconscout.com/legal#licenses" dc:title="pinterest,share,online,social,media" dc:description="pinterest,share,online,social,media" dc:publisher="Iconscout" dc:date="2017-09-15" dc:format="image/svg+xml" dc:language="en"><dc:creator><rdf:Bag><rdf:li>Epicflaticon by Alfredo</rdf:li></rdf:Bag></dc:creator></rdf:Description></rdf:RDF></metadata></svg>